<?xml version="1.0" encoding="UTF-8"?>
<!DOCTYPE svg PUBLIC "-//W3C//DTD SVG 1.1//EN" "http://www.w3.org/Graphics/SVG/1.1/DTD/svg11.dtd">
<svg xmlns="http://www.w3.org/2000/svg" version="1.1" width="308px" height="82px" style="shape-rendering:geometricPrecision; text-rendering:geometricPrecision; image-rendering:optimizeQuality; fill-rule:evenodd; clip-rule:evenodd" xmlns:xlink="http://www.w3.org/1999/xlink">
<g><path style="opacity:1" fill="#020202" d="M -0.5,-0.5 C 102.167,-0.5 204.833,-0.5 307.5,-0.5C 307.5,26.8333 307.5,54.1667 307.5,81.5C 204.833,81.5 102.167,81.5 -0.5,81.5C -0.5,54.1667 -0.5,26.8333 -0.5,-0.5 Z"/></g>
<g><path style="opacity:1" fill="#f2f2f2" d="M 39.5,23.5 C 39.5018,27.1645 40.8352,30.1645 43.5,32.5C 44.5375,33.9303 45.2041,35.597 45.5,37.5C 45.1663,40.491 46.1663,42.8243 48.5,44.5C 50.3546,47.5544 51.6879,50.8878 52.5,54.5C 52.8726,57.5739 53.5392,60.5739 54.5,63.5C 52.1667,63.5 49.8333,63.5 47.5,63.5C 47.528,61.4176 46.8613,59.5843 45.5,58C 38.144,57.1687 30.8107,57.3354 23.5,58.5C 22.6906,60.0709 22.3573,61.7376 22.5,63.5C 22.1667,63.5 21.8333,63.5 21.5,63.5C 19.1667,63.5 16.8333,63.5 14.5,63.5C 14.5,62.5 14.5,61.5 14.5,60.5C 16.8337,58.8243 17.8337,56.491 17.5,53.5C 18.1302,51.2504 19.1302,49.2504 20.5,47.5C 22.6418,44.1996 23.9751,40.533 24.5,36.5C 24.5,35.8333 24.8333,35.5 25.5,35.5C 26.7512,33.6181 27.9179,31.6181 29,29.5C 29.49,28.2068 29.6567,26.8734 29.5,25.5C 30.5929,23.4439 32.4262,22.4439 35,22.5C 36.7067,22.5085 38.2067,22.8418 39.5,23.5 Z"/></g>
<g><path style="opacity:1" fill="#f6f6f6" d="M 75.5,22.5 C 78.5719,22.1826 81.5719,22.5159 84.5,23.5C 85.1272,24.4168 85.4606,25.4168 85.5,26.5C 85.8369,30.836 87.5035,34.5026 90.5,37.5C 91.1715,42.5061 93.1715,46.8394 96.5,50.5C 96.0901,55.3033 97.5901,56.3033 101,53.5C 101.49,52.2068 101.657,50.8734 101.5,49.5C 101.66,47.847 102.326,46.5137 103.5,45.5C 105.834,43.8243 106.834,41.491 106.5,38.5C 106.75,36.326 107.75,34.6594 109.5,33.5C 111.074,31.8984 111.741,29.8984 111.5,27.5C 112.906,27.0269 113.573,26.0269 113.5,24.5C 115.988,22.6122 118.988,21.9455 122.5,22.5C 122.5,36.5 122.5,50.5 122.5,64.5C 120.167,64.5 117.833,64.5 115.5,64.5C 115.831,56.8045 115.497,49.1378 114.5,41.5C 113.893,41.6236 113.56,41.9569 113.5,42.5C 112.023,45.3568 110.69,48.3568 109.5,51.5C 107.085,54.3399 105.752,57.6733 105.5,61.5C 104.733,62.172 104.066,63.0053 103.5,64C 100.183,64.4983 96.8499,64.665 93.5,64.5C 93.5674,63.0413 93.2341,61.7079 92.5,60.5C 91.8379,57.8516 91.1712,55.1849 90.5,52.5C 90.2528,51.2867 89.5862,50.62 88.5,50.5C 87.5987,49.7095 86.9321,48.7095 86.5,47.5C 86.573,45.9731 85.9063,44.9731 84.5,44.5C 84.5,43.8333 84.5,43.1667 84.5,42.5C 84.5852,41.0047 83.9185,40.0047 82.5,39.5C 81.5023,47.4723 81.169,55.4723 81.5,63.5C 79.5,63.5 77.5,63.5 75.5,63.5C 75.5,49.8333 75.5,36.1667 75.5,22.5 Z"/></g>
<g><path style="opacity:1" fill="#eeeeee" d="M 169.5,25.5 C 170.933,27.5582 171.6,29.8915 171.5,32.5C 169.167,32.5 166.833,32.5 164.5,32.5C 164.586,31.5041 164.252,30.6708 163.5,30C 159.129,29.3708 154.796,29.5375 150.5,30.5C 150.019,34.3491 151.686,36.3491 155.5,36.5C 157.905,37.7682 160.572,38.4349 163.5,38.5C 167.592,39.7976 171.425,41.7976 175,44.5C 178.029,54.2268 174.862,60.5601 165.5,63.5C 159.464,63.6401 153.464,63.3068 147.5,62.5C 140.04,59.6417 139.874,56.6417 147,53.5C 148.171,54.3396 149.338,55.1729 150.5,56C 155.5,56.6667 160.5,56.6667 165.5,56C 167.314,53.5185 167.98,50.6852 167.5,47.5C 160.665,46.2912 153.998,44.4578 147.5,42C 141.356,36.5567 141.023,30.89 146.5,25C 154.275,21.5662 161.942,21.7329 169.5,25.5 Z"/></g>
<g><path style="opacity:1" fill="#f2f2f2" d="M 209.5,22.5 C 212.572,22.1826 215.572,22.5159 218.5,23.5C 221.921,29.5234 224.588,35.8568 226.5,42.5C 226.166,45.491 227.166,47.8243 229.5,49.5C 230.811,52.7971 232.145,56.1304 233.5,59.5C 233.5,60.8333 233.5,62.1667 233.5,63.5C 231.167,63.5 228.833,63.5 226.5,63.5C 226.528,61.4176 225.861,59.5843 224.5,58C 220.833,57.8333 217.167,57.6667 213.5,57.5C 209.435,57.5112 205.768,58.1778 202.5,59.5C 201.833,60.8333 201.167,62.1667 200.5,63.5C 198.167,63.5 195.833,63.5 193.5,63.5C 193.5,62.5 193.5,61.5 193.5,60.5C 195.834,58.8243 196.834,56.491 196.5,53.5C 196.796,51.597 197.463,49.9303 198.5,48.5C 200.834,46.8243 201.834,44.491 201.5,41.5C 202.483,37.9098 203.817,34.5765 205.5,31.5C 208.165,29.1645 209.498,26.1645 209.5,22.5 Z"/></g>
<g><path style="opacity:1" fill="#f3f3f3" d="M 254.5,22.5 C 257.85,22.335 261.183,22.5017 264.5,23C 271.086,32.0701 277.42,41.2368 283.5,50.5C 283.369,51.3764 283.702,52.0431 284.5,52.5C 285.499,42.5222 285.832,32.5222 285.5,22.5C 287.833,22.5 290.167,22.5 292.5,22.5C 292.5,36.1667 292.5,49.8333 292.5,63.5C 289.167,63.5 285.833,63.5 282.5,63.5C 276.523,54.1997 270.19,45.1997 263.5,36.5C 263.5,36.1667 263.5,35.8333 263.5,35.5C 263.179,33.9519 262.179,33.2852 260.5,33.5C 260.5,43.5 260.5,53.5 260.5,63.5C 258.5,63.5 256.5,63.5 254.5,63.5C 254.5,49.8333 254.5,36.1667 254.5,22.5 Z"/></g>
<g><path style="opacity:1" fill="#868686" d="M 292.5,22.5 C 293.496,36.3234 293.829,50.3234 293.5,64.5C 289.629,64.815 285.962,64.4816 282.5,63.5C 285.833,63.5 289.167,63.5 292.5,63.5C 292.5,49.8333 292.5,36.1667 292.5,22.5 Z"/></g>
<g><path style="opacity:1" fill="#a3a3a3" d="M 209.5,22.5 C 209.498,26.1645 208.165,29.1645 205.5,31.5C 206.075,28.0884 207.408,25.0884 209.5,22.5 Z"/></g>
<g><path style="opacity:1" fill="#999999" d="M 39.5,23.5 C 41.5918,26.0884 42.9251,29.0884 43.5,32.5C 40.8352,30.1645 39.5018,27.1645 39.5,23.5 Z"/></g>
<g><path style="opacity:1" fill="#858585" d="M 113.5,24.5 C 113.573,26.0269 112.906,27.0269 111.5,27.5C 111.427,25.9731 112.094,24.9731 113.5,24.5 Z"/></g>
<g><path style="opacity:1" fill="#b0b0b0" d="M 29.5,25.5 C 29.6567,26.8734 29.49,28.2068 29,29.5C 27.9179,31.6181 26.7512,33.6181 25.5,35.5C 25.7701,31.6424 27.1034,28.309 29.5,25.5 Z"/></g>
<g><path style="opacity:1" fill="#8e8e8e" d="M 85.5,26.5 C 87.951,29.7403 89.6176,33.4069 90.5,37.5C 87.5035,34.5026 85.8369,30.836 85.5,26.5 Z"/></g>
<g><path style="opacity:1" fill="#9c9c9c" d="M 111.5,27.5 C 111.741,29.8984 111.074,31.8984 109.5,33.5C 109.259,31.1016 109.926,29.1016 111.5,27.5 Z"/></g>
<g><path style="opacity:1" fill="#969696" d="M 169.5,25.5 C 172.172,27.3914 173.172,30.0581 172.5,33.5C 169.615,33.8064 166.948,33.4731 164.5,32.5C 166.833,32.5 169.167,32.5 171.5,32.5C 171.6,29.8915 170.933,27.5582 169.5,25.5 Z"/></g>
<g><path style="opacity:1" fill="#0d0d0d" d="M 38.5,42.5 C 38.427,44.0269 39.0937,45.0269 40.5,45.5C 40.5,46.1667 40.5,46.8333 40.5,47.5C 38.9522,48.7943 36.9522,49.4609 34.5,49.5C 32.5,49.3333 30.5,49.1667 28.5,49C 30.3003,46.886 31.3003,44.386 31.5,41.5C 33.0739,39.8984 33.7406,37.8984 33.5,35.5C 34.397,34.4019 35.2303,34.4019 36,35.5C 37.4114,37.6504 38.2447,39.9837 38.5,42.5 Z"/></g>
<g><path style="opacity:1" fill="#484848" d="M 155.5,36.5 C 158.495,36.2938 161.162,36.9605 163.5,38.5C 160.572,38.4349 157.905,37.7682 155.5,36.5 Z"/></g>
<g><path style="opacity:1" fill="#141414" d="M 217.5,42.5 C 217.427,44.0269 218.094,45.0269 219.5,45.5C 219.5,46.1667 219.5,46.8333 219.5,47.5C 216.316,49.4136 212.649,50.0803 208.5,49.5C 208.5,48.1667 208.5,46.8333 208.5,45.5C 209.363,43.5786 210.029,41.5786 210.5,39.5C 211.906,39.0269 212.573,38.0269 212.5,36.5C 212.354,34.0576 213.187,33.3909 215,34.5C 216.144,37.0804 216.978,39.7471 217.5,42.5 Z"/></g>
<g><path style="opacity:1" fill="#5b5b5b" d="M 33.5,35.5 C 33.7406,37.8984 33.0739,39.8984 31.5,41.5C 31.2594,39.1016 31.9261,37.1016 33.5,35.5 Z"/></g>
<g><path style="opacity:1" fill="#7e7e7e" d="M 212.5,36.5 C 212.573,38.0269 211.906,39.0269 210.5,39.5C 210.427,37.9731 211.094,36.9731 212.5,36.5 Z"/></g>
<g><path style="opacity:1" fill="#b6b6b6" d="M 254.5,22.5 C 254.5,36.1667 254.5,49.8333 254.5,63.5C 256.5,63.5 258.5,63.5 260.5,63.5C 260.5,53.5 260.5,43.5 260.5,33.5C 262.179,33.2852 263.179,33.9519 263.5,35.5C 261.527,44.7755 260.86,54.4422 261.5,64.5C 258.833,64.5 256.167,64.5 253.5,64.5C 253.171,50.3234 253.504,36.3234 254.5,22.5 Z"/></g>
<g><path style="opacity:1" fill="#8e8e8e" d="M 24.5,36.5 C 23.9751,40.533 22.6418,44.1996 20.5,47.5C 21.0249,43.467 22.3582,39.8004 24.5,36.5 Z"/></g>
<g><path style="opacity:1" fill="#424242" d="M 263.5,35.5 C 263.5,35.8333 263.5,36.1667 263.5,36.5C 262.833,45.8333 262.167,55.1667 261.5,64.5C 260.86,54.4422 261.527,44.7755 263.5,35.5 Z"/></g>
<g><path style="opacity:1" fill="#868686" d="M 45.5,37.5 C 47.0652,39.5093 48.0652,41.8427 48.5,44.5C 46.1663,42.8243 45.1663,40.491 45.5,37.5 Z"/></g>
<g><path style="opacity:1" fill="#8b8b8b" d="M 90.5,37.5 C 93.2836,41.4047 95.2836,45.738 96.5,50.5C 93.1715,46.8394 91.1715,42.5061 90.5,37.5 Z"/></g>
<g><path style="opacity:1" fill="#9a9a9a" d="M 106.5,38.5 C 106.834,41.491 105.834,43.8243 103.5,45.5C 103.935,42.8427 104.935,40.5093 106.5,38.5 Z"/></g>
<g><path style="opacity:1" fill="#787878" d="M 285.5,22.5 C 285.832,32.5222 285.499,42.5222 284.5,52.5C 283.702,52.0431 283.369,51.3764 283.5,50.5C 284.167,41.1667 284.833,31.8333 285.5,22.5 Z"/></g>
<g><path style="opacity:1" fill="#777777" d="M 38.5,42.5 C 39.9063,42.9731 40.573,43.9731 40.5,45.5C 39.0937,45.0269 38.427,44.0269 38.5,42.5 Z"/></g>
<g><path style="opacity:1" fill="#666666" d="M 113.5,42.5 C 113.56,41.9569 113.893,41.6236 114.5,41.5C 115.497,49.1378 115.831,56.8045 115.5,64.5C 114.833,57.1667 114.167,49.8333 113.5,42.5 Z"/></g>
<g><path style="opacity:1" fill="#969696" d="M 201.5,41.5 C 201.834,44.491 200.834,46.8243 198.5,48.5C 198.935,45.8427 199.935,43.5093 201.5,41.5 Z"/></g>
<g><path style="opacity:1" fill="#818181" d="M 217.5,42.5 C 218.906,42.9731 219.573,43.9731 219.5,45.5C 218.094,45.0269 217.427,44.0269 217.5,42.5 Z"/></g>
<g><path style="opacity:1" fill="#8f8f8f" d="M 226.5,42.5 C 228.065,44.5093 229.065,46.8427 229.5,49.5C 227.166,47.8243 226.166,45.491 226.5,42.5 Z"/></g>
<g><path style="opacity:1" fill="#7b7b7b" d="M 84.5,44.5 C 85.9063,44.9731 86.573,45.9731 86.5,47.5C 85.0937,47.0269 84.427,46.0269 84.5,44.5 Z"/></g>
<g><path style="opacity:1" fill="#515151" d="M 31.5,41.5 C 31.3003,44.386 30.3003,46.886 28.5,49C 30.5,49.1667 32.5,49.3333 34.5,49.5C 36.9522,49.4609 38.9522,48.7943 40.5,47.5C 41.404,48.209 41.7373,49.209 41.5,50.5C 36.8333,50.5 32.1667,50.5 27.5,50.5C 28.056,47.0626 29.3893,44.0626 31.5,41.5 Z"/></g>
<g><path style="opacity:1" fill="#4e4e4e" d="M 208.5,45.5 C 208.5,46.8333 208.5,48.1667 208.5,49.5C 212.649,50.0803 216.316,49.4136 219.5,47.5C 220.404,48.209 220.737,49.209 220.5,50.5C 215.833,50.5 211.167,50.5 206.5,50.5C 206.402,48.4471 207.069,46.7804 208.5,45.5 Z"/></g>
<g><path style="opacity:1" fill="#bbbbbb" d="M 88.5,50.5 C 89.5862,50.62 90.2528,51.2867 90.5,52.5C 91.1712,55.1849 91.8379,57.8516 92.5,60.5C 91.8826,60.3893 91.3826,60.056 91,59.5C 89.8695,56.5547 89.0362,53.5547 88.5,50.5 Z"/></g>
<g><path style="opacity:1" fill="#b1b1b1" d="M 75.5,22.5 C 75.5,36.1667 75.5,49.8333 75.5,63.5C 77.5,63.5 79.5,63.5 81.5,63.5C 81.169,55.4723 81.5023,47.4723 82.5,39.5C 83.9185,40.0047 84.5852,41.0047 84.5,42.5C 83.8826,42.3893 83.3826,42.056 83,41.5C 82.5003,49.1594 82.3336,56.8261 82.5,64.5C 79.8333,64.5 77.1667,64.5 74.5,64.5C 74.1709,50.3234 74.5042,36.3234 75.5,22.5 Z"/></g>
<g><path style="opacity:1" fill="#949494" d="M 101.5,49.5 C 101.657,50.8734 101.49,52.2068 101,53.5C 97.5901,56.3033 96.0901,55.3033 96.5,50.5C 97.1577,51.3984 97.8243,52.3984 98.5,53.5C 99.5207,52.0986 100.521,50.7653 101.5,49.5 Z"/></g>
<g><path style="opacity:1" fill="#8b8b8b" d="M 17.5,53.5 C 17.8337,56.491 16.8337,58.8243 14.5,60.5C 14.9348,57.8427 15.9348,55.5093 17.5,53.5 Z"/></g>
<g><path style="opacity:1" fill="#3f3f3f" d="M 84.5,42.5 C 84.5,43.1667 84.5,43.8333 84.5,44.5C 83.8333,51.1667 83.1667,57.8333 82.5,64.5C 82.3336,56.8261 82.5003,49.1594 83,41.5C 83.3826,42.056 83.8826,42.3893 84.5,42.5 Z"/></g>
<g><path style="opacity:1" fill="#8e8e8e" d="M 196.5,53.5 C 196.834,56.491 195.834,58.8243 193.5,60.5C 193.935,57.8427 194.935,55.5093 196.5,53.5 Z"/></g>
<g><path style="opacity:1" fill="#4b4b4b" d="M 47.5,63.5 C 46.0527,62.3778 45.0527,60.8778 44.5,59C 37.8417,58.5004 31.175,58.3337 24.5,58.5C 24.5979,60.5529 23.9313,62.2196 22.5,63.5C 22.3573,61.7376 22.6906,60.0709 23.5,58.5C 30.8107,57.3354 38.144,57.1687 45.5,58C 46.8613,59.5843 47.528,61.4176 47.5,63.5 Z"/></g>
<g><path style="opacity:1" fill="#4c4c4c" d="M 226.5,63.5 C 226.5,63.8333 226.5,64.1667 226.5,64.5C 225.229,62.8914 224.229,61.0581 223.5,59C 216.42,58.2055 209.42,58.3722 202.5,59.5C 205.768,58.1778 209.435,57.5112 213.5,57.5C 217.167,57.6667 220.833,57.8333 224.5,58C 225.861,59.5843 226.528,61.4176 226.5,63.5 Z"/></g>
<g><path style="opacity:1" fill="#454545" d="M 109.5,51.5 C 109.55,55.4296 108.217,58.7629 105.5,61.5C 105.752,57.6733 107.085,54.3399 109.5,51.5 Z"/></g>
<g><path style="opacity:1" fill="#9f9f9f" d="M 14.5,60.5 C 14.5,61.5 14.5,62.5 14.5,63.5C 16.8333,63.5 19.1667,63.5 21.5,63.5C 19.0521,64.4731 16.3854,64.8064 13.5,64.5C 13.2322,62.901 13.5655,61.5676 14.5,60.5 Z"/></g>
<g><path style="opacity:1" fill="#a2a2a2" d="M 52.5,54.5 C 54.68,57.381 55.68,60.7144 55.5,64.5C 52.6146,64.8064 49.9479,64.4731 47.5,63.5C 49.8333,63.5 52.1667,63.5 54.5,63.5C 53.5392,60.5739 52.8726,57.5739 52.5,54.5 Z"/></g>
<g><path style="opacity:1" fill="#9d9d9d" d="M 147.5,62.5 C 153.464,63.3068 159.464,63.6401 165.5,63.5C 163.19,64.1638 160.69,64.4971 158,64.5C 154.195,64.6963 150.695,64.0296 147.5,62.5 Z"/></g>
<g><path style="opacity:1" fill="#a2a2a2" d="M 193.5,60.5 C 193.5,61.5 193.5,62.5 193.5,63.5C 195.833,63.5 198.167,63.5 200.5,63.5C 198.052,64.4731 195.385,64.8064 192.5,64.5C 192.232,62.901 192.566,61.5676 193.5,60.5 Z"/></g>
<g><path style="opacity:1" fill="#a2a2a2" d="M 233.5,59.5 C 234.931,60.7804 235.598,62.4471 235.5,64.5C 232.5,64.5 229.5,64.5 226.5,64.5C 226.5,64.1667 226.5,63.8333 226.5,63.5C 228.833,63.5 231.167,63.5 233.5,63.5C 233.5,62.1667 233.5,60.8333 233.5,59.5 Z"/></g>
</svg>
