<?xml version="1.0" encoding="UTF-8"?>
<svg version="1.1" xmlns="http://www.w3.org/2000/svg" width="512" height="512">
<path d="M0 0 C8.06373191 6.83459816 15.52500629 14.3302545 23.015625 21.77734375 C23.61678886 22.37443209 24.21795273 22.97152042 24.83733368 23.58670235 C28.01133288 26.74002455 31.18217675 29.8964815 34.35058594 33.05541992 C37.59877594 36.29250413 40.85849417 39.51772103 44.12085342 42.74051571 C46.65332705 45.24672882 49.17676385 47.76189828 51.69792938 50.27948189 C52.89530745 51.47202896 54.09602492 52.66123389 55.3003006 53.84681511 C63.56702342 61.99298224 70.82756916 69.96728462 74.3125 81.3125 C74.77076172 82.76076172 74.77076172 82.76076172 75.23828125 84.23828125 C79.44673775 99.4966338 77.41359138 115.55333226 70.4375 129.6875 C65.60211139 137.90153989 58.69887665 144.84005986 51.4375 150.9375 C47.11373662 154.61579359 46.18361657 157.13323157 45.625 162.8125 C46.30792919 180.34101598 71.10017927 201.13569856 82.49462891 213.37695312 C84.15401963 215.16605943 85.80164938 216.9656293 87.44921875 218.765625 C93.34390831 225.17866967 99.26383161 231.36836647 105.84375 237.09375 C107.80317072 238.8259915 109.62377193 240.61782936 111.4375 242.5 C115.0376734 246.15891749 118.9796092 249.32898028 122.9765625 252.54296875 C125.63844376 254.70617717 128.24996476 256.91223961 130.85058594 259.14770508 C144.33222602 271.74512956 144.33222602 271.74512956 161.4375 275.875 C170.44125723 274.48863467 174.82917692 270.33141372 180.64453125 263.53515625 C190.74437401 252.66484455 205.38379695 246.98196089 219.9921875 246.00390625 C241.09425823 245.97650096 255.95441459 254.62818491 270.46585083 268.99771118 C271.62620334 270.15679599 272.78601048 271.316427 273.9453125 272.4765625 C275.16710538 273.69123375 276.38918754 274.90561409 277.61154175 276.11972046 C280.15978468 278.65459391 282.70210443 281.1952354 285.24072266 283.73974609 C288.46569867 286.97060969 291.70853204 290.18286174 294.95659065 293.39049721 C297.48265872 295.89048869 299.99693001 298.40210015 302.5081749 300.91697311 C303.69771871 302.10484419 304.89116119 303.28882646 306.08884048 304.46849442 C320.21317078 318.40359438 329.28269994 332.58819214 329.4375 353.125 C329.20793283 369.41362685 324.25262118 383.46679568 312.83984375 395.46484375 C306.70335891 400.94294369 299.82890609 405.43918417 293 410 C291.91976563 410.73347656 290.83953125 411.46695312 289.7265625 412.22265625 C287.8078335 413.51638371 285.88087701 414.79800498 283.9453125 416.06640625 C281.83882695 417.44931122 279.75570013 418.85045899 277.6796875 420.27734375 C257.58784978 433.90704359 234.61551175 439.14220672 210.5625 434.9375 C192.97386447 430.87424302 176.36395407 423.45903301 160 416 C159.04689941 415.56671387 158.09379883 415.13342773 157.11181641 414.68701172 C123.12700474 399.12387367 91.28684985 379.20921667 62 356 C61.15695313 355.33871094 60.31390625 354.67742187 59.4453125 353.99609375 C49.27124703 345.95110588 39.44556522 337.53567549 29.94921875 328.703125 C27.78877724 326.69904837 25.57343022 324.77295361 23.3359375 322.85546875 C18.47697856 318.61933529 13.92748257 314.07793746 9.3815918 309.51196289 C7.93974779 308.06475615 6.49262884 306.62297974 5.04492188 305.18164062 C-0.18341138 299.95705629 -5.19676317 294.6171524 -10 289 C-11.45445517 287.39231627 -12.91220895 285.78760285 -14.375 284.1875 C-19.10233313 278.93579043 -23.5999471 273.52732593 -28 268 C-28.50660156 267.36594238 -29.01320313 266.73188477 -29.53515625 266.07861328 C-66.47288393 219.699061 -119.48967361 146.72592077 -115 84 C-112.83129803 66.80287106 -105.60178854 52.72058658 -97 38 C-96.45601562 37.05640625 -95.91203125 36.1128125 -95.3515625 35.140625 C-84.10528354 15.70135549 -73.37037891 -0.67811611 -51 -8 C-50.319375 -8.22558594 -49.63875 -8.45117188 -48.9375 -8.68359375 C-32.75455629 -13.12777337 -13.50024166 -9.86203365 0 0 Z M-47.60205078 36.9296875 C-52.24138175 43.68607756 -56.49412686 50.63141328 -60.62646484 57.70507812 C-61.75500281 59.63354891 -62.89469817 61.55512263 -64.03515625 63.4765625 C-71.45858074 76.07887936 -76.42865395 87.79368473 -72.76171875 102.54296875 C-71.10670355 108.92924284 -68.95254449 115.04309595 -66.5625 121.1875 C-66.12929443 122.30535889 -65.69608887 123.42321777 -65.24975586 124.57495117 C-60.46207313 136.69337453 -54.86201303 148.37070963 -49 160 C-48.53980469 160.92151855 -48.07960938 161.84303711 -47.60546875 162.79248047 C-34.70746681 188.51879053 -18.85975024 212.45520964 -1 235 C-0.3503125 235.83144531 0.299375 236.66289062 0.96875 237.51953125 C12.74388684 252.45561671 25.43849894 266.66878858 39 280 C41.81352129 282.79926358 44.60651517 285.61704355 47.3828125 288.453125 C53.82634647 295.00747298 60.24932127 301.28199857 67.4765625 306.97265625 C69.98766945 308.99009357 72.33152266 311.11697959 74.6875 313.3125 C80.72550663 318.79900366 87.24492188 323.59130902 93.82177734 328.40429688 C96.00841597 330.0061653 98.18591783 331.6199302 100.36328125 333.234375 C129.30148527 354.55877498 161.00271562 372.40263697 194.25 386.0625 C195.31943848 386.50343994 196.38887695 386.94437988 197.49072266 387.39868164 C212.76605374 393.51615457 228.06025649 398.67780587 244 392 C253.44953029 387.73198711 261.6903977 381.42638402 270.05712891 375.38623047 C272.58717774 373.58105112 275.16945688 371.85693402 277.75 370.125 C282.12292328 367.07810797 285.58181738 363.83636524 288 359 C288.27546634 356.56920787 288.27546634 356.56920787 288.3125 353.8125 C288.34988281 352.89082031 288.38726562 351.96914063 288.42578125 351.01953125 C287.52573534 344.63663688 283.39547982 340.01803273 278.99121094 335.57128906 C278.50604507 335.07765366 278.02087921 334.58401825 277.52101135 334.07542419 C275.93312836 332.46435905 274.33450468 330.86452068 272.734375 329.265625 C271.61553393 328.13967249 270.49698825 327.01342639 269.37872314 325.88690186 C267.04034562 323.53512371 264.69616799 321.1893139 262.34814453 318.84716797 C259.35097402 315.855898 256.37247471 312.84676628 253.39852524 309.83243179 C251.09595977 307.50393144 248.78193089 305.18708815 246.4645462 302.87334442 C245.36186267 301.76897597 244.2631226 300.6606545 243.16857147 299.5482254 C234.5708394 290.3611285 234.5708394 290.3611285 222.87445068 286.95758057 C216.75704597 287.288944 212.03658543 289.81086135 207.9140625 294.2421875 C207.17929687 295.09039062 206.44453125 295.93859375 205.6875 296.8125 C195.12301717 308.94737893 180.73600717 315.05867563 164.9375 316.75 C140.54841225 318.27255577 123.82454757 307.07277458 106 292 C104.9496748 291.12445263 103.89887674 290.24947226 102.84765625 289.375 C96.34417424 283.94360597 90.01988727 278.35244754 83.80859375 272.58984375 C81.36144694 270.3332953 78.87748962 268.1319909 76.375 265.9375 C71.35864533 261.43501581 66.58616925 256.69524093 61.8125 251.9375 C61.05179199 251.18138428 60.29108398 250.42526855 59.50732422 249.64624023 C55.35170113 245.47928281 51.36134479 241.2258159 47.52124023 236.76635742 C45.598522 234.53383192 43.61289973 232.36200334 41.625 230.1875 C36.89775563 224.93500626 32.39352183 219.53324354 28 214 C27.48856445 213.3611084 26.97712891 212.7222168 26.45019531 212.06396484 C12.56242582 194.64506054 2.57804506 178.17357811 5 155 C7.71968661 137.44019088 16.74686987 124.64762509 30.2734375 113.5703125 C34.29185962 109.91554849 35.85073262 106.76135507 36.3125 101.3125 C36.02000192 90.40854903 26.98780611 83.41704023 19.7890625 76.29296875 C18.57538204 75.0791331 17.36236998 73.86462881 16.1499939 72.64949036 C13.6160535 70.11417059 11.07532611 67.58592234 8.52929688 65.06274414 C5.27368551 61.83556117 2.03392358 58.59299935 -1.20113182 55.34522533 C-3.70057481 52.83881446 -6.20735376 50.33984751 -8.71648026 47.84313393 C-9.91378084 46.6503338 -11.10901861 45.45545922 -12.30210495 44.25844383 C-13.97199365 42.58563091 -15.65131249 40.92288811 -17.33349609 39.26245117 C-17.81993088 38.77151474 -18.30636566 38.28057831 -18.80754089 37.77476501 C-22.95215191 33.71838875 -27.41758171 30.57357327 -33.375 30.5625 C-39.17374792 30.82519496 -43.81040035 32.36260353 -47.60205078 36.9296875 Z " fill="#000000" transform="translate(148,43)"/>
<path d="M0 0 C1.02955811 0.22075195 2.05911621 0.44150391 3.11987305 0.66894531 C49.00021671 10.96442059 90.95005125 36.66012573 119.8125 74 C120.22967285 74.53012695 120.6468457 75.06025391 121.07666016 75.60644531 C140.76008234 100.73763199 153.03261767 129.55062815 159.6875 160.625 C160.01077271 162.11809692 160.01077271 162.11809692 160.34057617 163.64135742 C162.22315903 172.90135575 163.0727423 180.26046914 158.4453125 188.76171875 C155.21870718 193.18479255 150.90588515 195.30220495 145.8125 197 C138.91368937 197.74747327 133.48851771 197.10585769 127.8125 193 C121.57162181 186.94577755 120.33438712 180.05187921 118.875 171.75 C112.98008899 141.86322694 100.68488434 113.92656239 79.30249023 91.81567383 C77.09595851 89.52295889 75.83582931 88.06998792 74.8125 85 C73.4964877 84.29976157 72.16092842 83.63558086 70.8125 83 C69.41796875 81.66015625 69.41796875 81.66015625 68 80.0625 C47.53362794 59.11814473 17.95965082 46.64457962 -10.29296875 40.94921875 C-11.14181641 40.7780957 -11.99066406 40.60697266 -12.86523438 40.43066406 C-14.48489986 40.11240295 -16.10724736 39.80736988 -17.73242188 39.51855469 C-23.6425933 38.39146292 -28.6465763 36.64916933 -32.9296875 32.18359375 C-33.49042969 31.31927734 -33.49042969 31.31927734 -34.0625 30.4375 C-34.45179688 29.85871094 -34.84109375 29.27992187 -35.2421875 28.68359375 C-37.99190604 23.78636776 -37.71600825 18.44140184 -37.1875 13 C-35.44014061 7.05897808 -32.20023929 3.47822726 -27.1875 0 C-18.591064 -4.0491293 -8.94830152 -1.93891139 0 0 Z " fill="#000000" transform="translate(317.1875,35)"/>
<path d="M0 0 C34.82401307 17.2332385 60.68344191 47.33489063 73.21484375 84.00390625 C77.42256513 96.91165728 83.14576816 115.31220945 78.77734375 128.56640625 C75.62979702 134.23199036 71.12087601 138.86856216 64.90234375 140.94140625 C57.76357758 141.6449034 51.78756544 141.3018205 45.90234375 136.94140625 C41.68362861 132.91640762 38.90410235 128.54875826 38.2265625 122.73828125 C38.12384033 121.93100586 38.02111816 121.12373047 37.9152832 120.29199219 C37.75419067 119.00470215 37.75419067 119.00470215 37.58984375 117.69140625 C33.74749184 90.23682201 20.99953368 66.01038931 -0.88818359 48.50976562 C-16.23844719 36.96299753 -33.98652028 30.14803042 -53.03515625 27.94140625 C-60.43829241 27.04405641 -65.95551528 25.65056667 -70.97265625 19.94140625 C-75.61273295 13.39070973 -76.03273584 7.92774924 -75.09765625 -0.05859375 C-72.81257518 -6.0734559 -68.59180001 -10.4587957 -62.734375 -13.140625 C-44.44315911 -19.50867794 -16.47805747 -7.92405581 0 0 Z " fill="#000000" transform="translate(339.09765625,107.05859375)"/>
<path d="M0 0 C14.74496766 12.53663044 25.16752606 30.4249346 28.10546875 49.69140625 C28.42389615 54.04922236 28.47547936 58.38569164 28.48046875 62.75390625 C28.50496094 63.88634766 28.52945313 65.01878906 28.5546875 66.18554688 C28.58232155 74.09349128 27.54976733 79.61801204 22.39453125 85.71484375 C16.61007378 90.41301812 11.70948866 92.34692521 4.10546875 91.69140625 C-2.15073077 90.16317431 -6.39107072 87.55440699 -9.97167969 82.02929688 C-13.0656349 76.42680844 -13.40081405 71.69540897 -13.39453125 65.37890625 C-13.74108708 51.37683472 -17.35786851 41.8071701 -27.51953125 32.00390625 C-37.26578068 23.90673705 -48.39277105 22.45915081 -60.64453125 22.81640625 C-66.25005949 22.83664281 -70.66704679 21.71718936 -74.87890625 17.88671875 C-80.30562899 11.9442331 -82.3994251 7.33444804 -82.20703125 -0.74609375 C-81.5326985 -6.27562229 -79.1036671 -10.50841004 -74.95703125 -14.18359375 C-53.30067486 -29.21045328 -18.01300273 -14.72409654 0 0 Z " fill="#000000" transform="translate(328.89453125,173.30859375)"/>
</svg>
