<?xml version="1.0" encoding="UTF-8"?>
<svg version="1.1" xmlns="http://www.w3.org/2000/svg" width="600" height="600">
<path d="M0 0 C1.47055847 -0.00101212 1.47055847 -0.00101212 2.9708252 -0.00204468 C18.48927925 0.01489687 33.61234246 0.59656441 48.9375 3.25 C49.91912109 3.41628906 50.90074219 3.58257813 51.91210938 3.75390625 C97.47548278 11.737106 141.93351229 31.06018983 177.9375 60.25 C178.86691406 60.98734375 179.79632813 61.7246875 180.75390625 62.484375 C196.83873957 75.3888501 212.33192299 89.8955525 224.9375 106.25 C226.13246094 107.75433594 226.13246094 107.75433594 227.3515625 109.2890625 C260.49786691 151.24297943 280.49872063 201.28097906 286.9375 254.25 C287.0921875 255.46320923 287.0921875 255.46320923 287.25 256.70092773 C288.33198175 266.52474243 288.18140043 276.44194774 288.1875 286.3125 C288.18851212 287.78305847 288.18851212 287.78305847 288.18954468 289.2833252 C288.17260313 304.80177925 287.59093559 319.92484246 284.9375 335.25 C284.68806641 336.72243164 284.68806641 336.72243164 284.43359375 338.22460938 C276.450394 383.78798278 257.12731017 428.24601229 227.9375 464.25 C227.20015625 465.17941406 226.4628125 466.10882813 225.703125 467.06640625 C212.7986499 483.15123957 198.2919475 498.64442299 181.9375 511.25 C180.93460937 512.04664063 179.93171875 512.84328125 178.8984375 513.6640625 C136.94452057 546.81036691 86.90652094 566.81122063 33.9375 573.25 C33.12869385 573.353125 32.3198877 573.45625 31.48657227 573.5625 C21.66275757 574.64448175 11.74555226 574.49390043 1.875 574.5 C0.40444153 574.50101212 0.40444153 574.50101212 -1.0958252 574.50204468 C-16.61427925 574.48510313 -31.73734246 573.90343559 -47.0625 571.25 C-48.53493164 571.00056641 -48.53493164 571.00056641 -50.03710938 570.74609375 C-95.60048278 562.762894 -140.05851229 543.43981017 -176.0625 514.25 C-176.99191406 513.51265625 -177.92132813 512.7753125 -178.87890625 512.015625 C-194.96373957 499.1111499 -210.45692299 484.6044475 -223.0625 468.25 C-223.85914063 467.24710937 -224.65578125 466.24421875 -225.4765625 465.2109375 C-258.62286691 423.25702057 -278.62372063 373.21902094 -285.0625 320.25 C-285.165625 319.44119385 -285.26875 318.6323877 -285.375 317.79907227 C-286.45698175 307.97525757 -286.30640043 298.05805226 -286.3125 288.1875 C-286.31317474 287.20712769 -286.31384949 286.22675537 -286.31454468 285.2166748 C-286.29760313 269.69822075 -285.71593559 254.57515754 -283.0625 239.25 C-282.81306641 237.77756836 -282.81306641 237.77756836 -282.55859375 236.27539062 C-274.575394 190.71201722 -255.25231017 146.25398771 -226.0625 110.25 C-225.32515625 109.32058594 -224.5878125 108.39117187 -223.828125 107.43359375 C-210.9236499 91.34876043 -196.4169475 75.85557701 -180.0625 63.25 C-179.05960937 62.45335937 -178.05671875 61.65671875 -177.0234375 60.8359375 C-135.06952057 27.68963309 -85.03152094 7.68877937 -32.0625 1.25 C-30.84929077 1.0953125 -30.84929077 1.0953125 -29.61157227 0.9375 C-19.78775757 -0.14448175 -9.87055226 0.00609957 0 0 Z " fill="#000000" transform="translate(299.0625,12.75)"/>
<path d="M0 0 C1.14980244 -0.00384115 2.29960489 -0.00768229 3.48424983 -0.01163983 C5.39539163 -0.01034011 5.39539163 -0.01034011 7.34514236 -0.00901413 C8.7037773 -0.01159641 10.06241147 -0.01460918 11.42104459 -0.01801753 C15.16746537 -0.02610707 18.91386701 -0.02787819 22.66029549 -0.028615 C26.69586453 -0.03046219 30.73142357 -0.03800786 34.76698685 -0.04475021 C43.59756679 -0.05834832 52.42814221 -0.06436066 61.25873089 -0.06876087 C66.77019408 -0.07152102 72.28165552 -0.07575797 77.79311752 -0.08026505 C93.04550822 -0.09246005 108.2978975 -0.10275864 123.55029297 -0.10614014 C124.52702507 -0.1063597 125.50375717 -0.10657927 126.51008721 -0.10680549 C127.97874303 -0.10713291 127.97874303 -0.10713291 129.47706866 -0.10746694 C131.46118975 -0.10791041 133.44531083 -0.10835697 135.42943192 -0.10880661 C136.41362992 -0.10902804 137.39782793 -0.10924947 138.41185012 -0.10947761 C154.36061146 -0.11342589 170.30932711 -0.1308798 186.2580708 -0.15416613 C202.6230045 -0.1778677 218.98791526 -0.19034146 235.35286641 -0.19150805 C244.54494542 -0.19242553 253.73696492 -0.19819604 262.92902756 -0.21632767 C270.7563673 -0.23171261 278.58362916 -0.23685867 286.41098115 -0.22858956 C290.40562268 -0.22467723 294.40010729 -0.22564093 298.39472961 -0.23964691 C302.05149142 -0.25235115 305.70797785 -0.25121915 309.36473909 -0.2390562 C311.31471711 -0.23616294 313.26469974 -0.24806136 315.21464038 -0.26047826 C323.00519341 -0.21622981 327.54419281 0.32872532 333.45309067 5.71834087 C336.53531446 9.74369603 336.30701273 13.84287383 336.23839188 18.74081802 C336.2447807 19.70205155 336.25116952 20.66328507 336.25775194 21.65364689 C336.27300026 24.87135614 336.25254099 28.08783384 336.23216629 31.30550003 C336.23566749 33.6135181 336.24132605 35.92153375 336.24898148 38.22954178 C336.2632382 44.49601135 336.24615921 50.7620426 336.2226963 57.02847028 C336.2026037 63.58312783 336.208466 70.13776689 336.21080399 76.69244766 C336.21164723 87.6991158 336.19110937 98.70562116 336.1589241 109.71223831 C336.12582612 121.03519878 336.11166727 132.35798044 336.11790848 143.68098831 C336.12539479 157.3300017 336.11802477 170.97890127 336.09625626 184.62790108 C336.08807477 189.84032095 336.08537409 195.05270142 336.08694839 200.26512718 C336.08782628 206.4006118 336.07363669 212.53588229 336.04772186 218.67131042 C336.04054998 220.92517242 336.03848133 223.17905718 336.0418396 225.43292809 C336.04554461 228.50519267 336.03084048 231.57682896 336.01134109 234.64902115 C336.01666902 235.54473707 336.02199695 236.440453 336.02748632 237.36331183 C335.975263 242.11966366 335.69552174 245.26719882 332.61693192 249.13142776 C328.14151956 253.15929889 325.06461227 254.2536555 319.11640263 254.27402878 C317.96584253 254.28033672 316.81528244 254.28664466 315.62985688 254.29314375 C314.36003943 254.29500575 313.09022197 254.29686774 311.7819252 254.29878616 C310.42385177 254.30423225 309.06577996 254.31009568 307.70770997 254.31634188 C303.96741915 254.3322053 300.22713489 254.34171238 296.48682082 254.35010672 C293.28072552 254.35810741 290.07464798 254.36979862 286.86856446 254.38152152 C275.38497044 254.42343772 263.90135556 254.45063493 252.41771317 254.47517776 C251.51158735 254.47715266 250.60546153 254.47912756 249.67187735 254.48116231 C231.68295159 254.52032209 213.69401892 254.55402953 195.70506382 254.57624435 C191.74966102 254.58121373 187.79425833 254.58625805 183.83885574 254.5913887 C182.36419391 254.59329471 182.36419391 254.59329471 180.85974094 254.59523922 C164.93171167 254.61660237 149.00388861 254.66560079 133.07596312 254.72563285 C116.72681222 254.78674495 100.37776775 254.82143087 84.02850407 254.83071756 C74.84742547 254.83663047 65.66669626 254.85440291 56.48573112 254.90210342 C48.66717625 254.94268786 40.84902778 254.95958839 33.03037224 254.9454506 C29.04127731 254.93897997 25.05304811 254.94385225 21.06408691 254.97932434 C17.40995705 255.01155787 13.75730295 255.0113014 10.10313525 254.98550731 C8.15958841 254.98013939 6.21604002 255.00923118 4.27272397 255.03965902 C-2.86782949 254.95034655 -6.88059599 254.03628225 -12.00896388 248.92581606 C-14.18374484 246.08585568 -14.50899814 243.57294206 -14.5256691 240.11454868 C-14.53197704 239.29491117 -14.53828498 238.47527365 -14.54478407 237.63079864 C-14.54664607 236.73062127 -14.54850806 235.8304439 -14.55042648 234.90298843 C-14.55911656 233.4681581 -14.55911656 233.4681581 -14.5679822 232.0043413 C-14.58608412 228.78474549 -14.59692576 225.56516726 -14.60767746 222.34553909 C-14.61885 220.0428336 -14.63036324 217.74012973 -14.64219284 215.43742752 C-14.67878046 207.86279444 -14.70397166 200.28814459 -14.72681808 192.71345901 C-14.73076395 191.42543436 -14.73470982 190.1374097 -14.73877525 188.81035399 C-14.77519194 176.6665645 -14.80679461 164.52277125 -14.82788467 152.37894535 C-14.83285388 149.56654025 -14.83789822 146.75413531 -14.84302902 143.9417305 C-14.84429969 143.24273102 -14.84557037 142.54373153 -14.84687954 141.82355025 C-14.86823492 130.50287888 -14.91722651 119.18249799 -14.97727317 107.86197273 C-15.03842949 96.23626893 -15.07252033 84.6107308 -15.08235788 72.98486918 C-15.08862132 66.45855441 -15.10679754 59.93277389 -15.15374374 53.4066143 C-15.19736874 47.26609277 -15.2079107 41.12639841 -15.19311523 34.98574829 C-15.19344425 32.7331031 -15.20574853 30.48042271 -15.23096466 28.22791862 C-15.26360844 25.1492067 -15.25292592 22.07352893 -15.23157883 18.99478531 C-15.2512866 18.10576155 -15.27099437 17.21673779 -15.29129934 16.30077392 C-15.1833182 10.122878 -13.34941253 7.06110374 -9.07980013 2.63232535 C-6.04253811 -0.0543801 -3.9700196 0.0049563 0 0 Z " fill="#FEFEFE" transform="translate(139.3830680847168,172.86857223510742)"/>
<path d="M0 0 C80.52 0 161.04 0 244 0 C237.31845043 7.79514117 237.31845043 7.79514117 232.9375 11.1875 C228.61436899 14.6307536 224.52570283 18.22109725 220.5 22 C215.76189035 26.43888992 210.87875415 30.5914647 205.8125 34.65625 C202.60150195 37.33208171 199.54970863 40.14358276 196.5 43 C191.76133536 47.43832674 186.87880674 51.5914225 181.8125 55.65625 C178.60150066 58.33208278 175.54972364 61.14359707 172.5 64 C167.73911006 68.45874444 162.8353218 72.6379783 157.74609375 76.72265625 C154.73680664 79.21826704 151.86066245 81.83770131 149 84.5 C144.35870777 88.81779461 139.56440562 92.87419228 134.625 96.8515625 C130.64083135 100.11241482 126.81446578 103.54343471 123 107 C117.97711876 105.504423 115.03152151 102.5010805 111.375 98.9375 C107.17771199 94.93780892 102.97163686 91.05948304 98.4375 87.4375 C94.28899495 84.1174776 90.37474704 80.62948833 86.5 77 C82.60423719 73.35111551 78.66665716 69.84301562 74.5 66.5 C70.3333379 63.15698041 66.39580188 59.64884863 62.5 56 C57.73911006 51.54125556 52.8353218 47.3620217 47.74609375 43.27734375 C44.20321701 40.33922549 40.84558228 37.21768822 37.47802734 34.08349609 C34.26683127 31.11269934 30.97363159 28.30031679 27.5625 25.5625 C22.74032336 21.68666682 18.2280768 17.55719598 13.72412109 13.32299805 C9.84491593 9.70299166 5.81831621 6.41286017 1.51171875 3.3046875 C1.01285156 2.87414062 0.51398438 2.44359375 0 2 C0 1.34 0 0.68 0 0 Z " fill="#010101" transform="translate(178,207)"/>
<path d="M0 0 C3.73922129 1.5813062 6.29649737 3.93230398 9.25 6.6875 C12.48815511 9.68479616 15.72928552 12.67054609 19.0625 15.5625 C22.07073528 18.17701942 25.04130249 20.82951656 28 23.5 C30.98062721 26.18983431 33.97245233 28.86310364 37 31.5 C42.58979989 36.37143203 48.07534898 41.3589515 53.578125 46.328125 C57.99984933 50.31581504 62.44304535 54.2736415 66.93359375 58.18359375 C70.18183566 61.03885365 73.38198542 63.94719702 76.58984375 66.84765625 C78.74038347 68.76815444 80.92009475 70.64253437 83.125 72.5 C84.07375 73.325 85.0225 74.15 86 75 C86 75.33 86 75.66 86 76 C7.13 76 -71.74 76 -153 76 C-146.27678571 68.15625 -146.27678571 68.15625 -143.25 65.625 C-140.12194365 62.96257036 -137.04595874 60.25631236 -134 57.5 C-130.38323655 54.23609152 -126.73610392 51.01209051 -123.0625 47.8125 C-119.8248667 44.9673071 -116.6331371 42.07146164 -113.43359375 39.18359375 C-111.32488854 37.29151315 -109.20080199 35.42094242 -107.0625 33.5625 C-103.83440488 30.75177475 -100.66261557 27.884201 -97.5 25 C-93.71879399 21.55166495 -89.90740494 18.14745872 -86.04296875 14.79296875 C-82.75673918 11.90887817 -79.52927576 8.95978621 -76.296875 6.015625 C-75.15992188 5.01789063 -75.15992188 5.01789063 -74 4 C-73.32453125 3.39671875 -72.6490625 2.7934375 -71.953125 2.171875 C-70 1 -70 1 -68.09765625 1 C-65.04917557 2.45327943 -62.8342759 4.67528708 -60.4375 7 C-48.94074621 18.97805428 -48.94074621 18.97805428 -34.5625 25.375 C-28.55753872 24.74289881 -24.61725379 21.9531878 -20.3125 17.875 C-15.83920035 13.72653905 -11.20773678 9.85429664 -6.4453125 6.04296875 C-4.16064697 4.13421464 -2.06749022 2.13961197 0 0 Z " fill="#000000" transform="translate(334,322)"/>
<path d="M0 0 C3.86553549 1.93276774 6.49037909 4.1339874 9.5625 7.0625 C13.41569892 10.67048999 17.31356011 14.13592936 21.4375 17.4375 C26.21621628 21.28110057 30.69157687 25.36960164 35.16381836 29.55834961 C38.51099327 32.67553945 41.93005023 35.63573798 45.5 38.5 C50.26108478 42.31994011 54.71273025 46.38938819 59.1640625 50.55859375 C63.34202608 54.44944609 67.69629636 58.05491196 72.15234375 61.625 C76.16191469 64.96905917 79.96527344 68.5208931 83.76171875 72.10351562 C86.64468718 74.87435368 86.64468718 74.87435368 90 77 C88.42774566 81.0442928 85.54827288 83.50573014 82.375 86.3125 C81.83302979 86.80032959 81.29105957 87.28815918 80.73266602 87.79077148 C77.20449731 90.95820604 73.64108239 94.08558969 70.05859375 97.19140625 C67.5104335 99.4301125 65.00589407 101.71410212 62.5 104 C58.71337002 107.45328153 54.8952368 110.86099051 51.02734375 114.22265625 C48.66510827 116.29359487 46.33204147 118.39512848 44 120.5 C41.01937279 123.18983431 38.02754767 125.86310364 35 128.5 C30.28298716 132.61081039 25.64361111 136.80667845 21 141 C17.67165076 144.00560022 14.33796667 147.005087 11 150 C10.24074219 150.68835938 9.48148438 151.37671875 8.69921875 152.0859375 C7.99410156 152.71757812 7.28898438 153.34921875 6.5625 154 C5.94503906 154.556875 5.32757813 155.11375 4.69140625 155.6875 C3 157 3 157 0 158 C0 105.86 0 53.72 0 0 Z " fill="#020202" transform="translate(153,225)"/>
<path d="M0 0 C0 52.14 0 104.28 0 158 C-7.60644514 151.48018988 -15.12985242 144.89573442 -22.56640625 138.18359375 C-24.67511146 136.29151315 -26.79919801 134.42094242 -28.9375 132.5625 C-33.13164365 128.91062947 -37.23094292 125.15733816 -41.33984375 121.41015625 C-44.18755795 118.83006864 -47.07244018 116.29798144 -49.97265625 113.77734375 C-52.33489173 111.70640513 -54.66795853 109.60487152 -57 107.5 C-59.98062721 104.81016569 -62.97245233 102.13689636 -66 99.5 C-70.71703068 95.38917407 -75.35560225 91.19247282 -80 87 C-81.87474528 85.31221702 -83.74973662 83.62470731 -85.625 81.9375 C-87.08333333 80.625 -88.54166667 79.3125 -90 78 C-82.87502247 70.79729544 -75.46043098 63.91091012 -67.5625 57.5625 C-62.78378372 53.71889943 -58.30842313 49.63039836 -53.83618164 45.44165039 C-49.64670474 41.5400333 -45.27827064 37.92675203 -40.8125 34.34375 C-37.60150066 31.66791722 -34.54972364 28.85640293 -31.5 26 C-26.75110388 21.55248821 -21.86437219 17.37899775 -16.78125 13.3125 C-13.00802385 10.17521084 -9.43116108 6.84100967 -5.88256836 3.45288086 C-2.2119884 0 -2.2119884 0 0 0 Z " fill="#020202" transform="translate(447,225)"/>
</svg>
